<?xml version="1.0" encoding="UTF-8"?>
<svg version="1.1" viewBox="0 0 1344 1484" width="336" height="371" xmlns="http://www.w3.org/2000/svg">
<path transform="translate(0)" d="m0 0h1344v1484h-1344z" fill="#FCFCFC"/>
<path transform="translate(982,744)" d="m0 0h64l16 2 8 4 8 8 6 10 2 7v18l-4 11-9 10-7 5-9 3-6 1h-72l-12-3-10-7-6-7-4-8-2-9v-10l3-12 7-11 7-6 8-4z" fill="#FCFCFC"/>
<path transform="translate(981,653)" d="m0 0 74 1 10 3 9 6 8 10 4 11v18l-4 11-7 9-8 6-7 3-6 1h-77l-11-3-10-8-7-9-3-8-1-14 2-10 6-12 7-7 12-6z" fill="#FBFBFB"/>
<path transform="translate(217,700)" d="m0 0h40l11 3 8 5 6 7 3 9v10l-3 7-4 5-6 4h-2l1 3 9 6 6 10 1 4v11l-4 9-7 8-10 5-12 2h-37l-1-3v-104z" fill="#870A0D"/>
<path transform="translate(447,692)" d="m0 0h15l-1 116h-13l-2-6v-2l-6 3-7 5-7 2h-10l-11-4-5-4-6-8-4-10-2-13v-8l3-15 6-11 8-7 10-4h15l7 3 8 4 1-37z" fill="#870A0D"/>
<path transform="translate(331,726)" d="m0 0h15l11 4 10 9 6 12 2 10v15l-3 12-6 10-8 7-9 4-5 1h-11l-12-3-8-6-7-8-4-10-2-11 1-15 3-10 6-10 7-6 9-4z" fill="#870A0D"/>
<path transform="translate(779,726)" d="m0 0h17l9 4 8 6 6 8 4 11 1 5v16l-2 9-5 10-6 7-10 6-12 3-11-1-9-4-8-6-7-9-4-12v-23l4-11 4-6 5-5 5-4 6-3z" fill="#870A0D"/>
<path transform="translate(845,727)" d="m0 0 3 3 7 45 2 20h2l1-21 4-36 2-10 7-1h13l2 9 5 41 1 17 2-7 6-40 4-19 3-1h10l-1 12-11 60-3 9h-20l-8-65-1-2-7 65-2 2h-19l-4-16-10-56-1-8z" fill="#870A0D"/>
<path transform="translate(541,727)" d="m0 0h13l1 4-22 67-8 24-6 10-5 4-6 2h-8l-9-3-7-7-3-7 1-5 9-1 5 2 3 5 6 1 4-2 6-18v-2l-10 1-3-5-13-37-10-29v-3h16l19 54 2 6 4-1 6-16 12-36z" fill="#870A0D"/>
<path transform="translate(615,692)" d="m0 0h16l10 5 7 8 3 10-12 1-3-1-5-6-5-2h-7l-6 4-2 7v8l1 1 29 1 1 4-1 10-29 1-1 1-1 63-1 1h-13l-1-1-1-64-17-1v-14l5-1h13v-13l4-11 5-6 7-4z" fill="#870A0D"/>
<path transform="translate(674,691)" d="m0 0h22l11 1v97l1 4 23 1 1 9-1 5h-61l-3-1v-13l24-1v-87h-24v-14z" fill="#870A0D"/>
<path transform="translate(784,740)" d="m0 0 10 1 6 3 6 7 2 5 1 6v11l-2 9-6 9-7 4h-15l-8-5-4-6-3-12v-8l3-12 7-8 5-3z" fill="#FCFCFC"/>
<path transform="translate(335,740)" d="m0 0 10 1 6 3 5 6 3 6 1 6v12l-3 10-6 8-6 3h-14l-8-4-5-7-2-6-1-14 2-9 5-8 6-5z" fill="#FCFCFC"/>
<path transform="translate(422,740)" d="m0 0 11 1 6 4 4 5 3 6 1 5v13l-3 10-4 6-5 4-3 1h-14l-6-3-5-6-3-9-1-13 2-9 5-9 8-5z" fill="#FCFCFC"/>
<path transform="translate(982,744)" d="m0 0h64l16 2 8 4 8 8 6 10 2 7v18l-4 11-9 10-7 5-9 3-6 1h-72l-12-3-10-7-6-7-4-8-2-9v-10l3-12 7-11 7-6 8-4zm7 4-14 1-10 4-8 7-5 8-2 6v18l3 9 7 9 9 6 5 2h81l11-4 8-7 6-9 1-4v-21l-6-12-8-8-9-4-22-1z" fill="#870A0D"/>
<path transform="translate(981,653)" d="m0 0 74 1 10 3 9 6 8 10 4 11v18l-4 11-7 9-8 6-7 3-6 1h-77l-11-3-10-8-7-9-3-8-1-14 2-10 6-12 7-7 12-6zm-6 6-8 3-6 4-7 8-3 6-1 4v18l5 12 8 8 9 5 6 1h77l11-4 9-8 5-9 1-4v-20l-4-9-7-9-6-4-8-2z" fill="#870A0D"/>
<path transform="translate(233,760)" d="m0 0h23l9 4 5 6 1 2v9l-5 8-9 4h-24l-1-1v-31z" fill="#FCFCFC"/>
<path transform="translate(234,714)" d="m0 0 24 1 8 4 4 8-1 10-4 5-5 3-6 1h-21l-1-1v-28z" fill="#FCFCFC"/>
<path transform="translate(1e3 776)" d="m0 0h7l3 4v11l-4 5-7-1-3-4v-10z" fill="#870A0D"/>
<path transform="translate(1054,688)" d="m0 0 7 2 1 2v8l-3 4h-6l-4-4-1-7 3-4z" fill="#870A0D"/>
<path transform="translate(1034,688)" d="m0 0h6l3 2v9l-2 4-7 1-4-4v-7l2-4z" fill="#870A0D"/>
<path transform="translate(1041,776)" d="m0 0 5 1 1 1v5l-7-1v6l7-2 1 5-2 3-7-1-5-5 5-10z" fill="#870A0D"/>
<path transform="translate(977,688)" d="m0 0h8v14l-4 2-7-1-1-3 7-2 3-2 1-4-6 2-3 3h-2v-7z" fill="#870A0D"/>
<path transform="translate(1022,776)" d="m0 0h7l3 6-1 4-5 4-1 2h6v3l-3 1h-7l-1-5 6-4 1-7h-3l-3 3-1-3z" fill="#870A0D"/>
<path transform="translate(989,776)" d="m0 0h6l1 1v9l-4 4-1 3 5-1v3l-7 1-4-1v-3l6-5 2-4v-3l-5 1h-3l2-4z" fill="#870A0D"/>
<path transform="translate(1012,688)" d="m0 0h9l2 1 1 14h-4v-12h-4l-1 2v10h-4v-14z" fill="#870A0D"/>
<path transform="translate(993,688)" d="m0 0h6l2 1-1 8-1 3 5-1 1 4-3 1h-8l-1-4 5-1-3-7z" fill="#870A0D"/>
<path transform="translate(1006,779)" d="m0 0h5l-1 7 3 4-4 3-4-3-1-10z" fill="#FCFCFC"/>
<path transform="translate(1034,691)" d="m0 0 5 1 2 3-1 5-5 1-3-5z" fill="#FCFCFC"/>
<path transform="translate(1053,694)" d="m0 0h5l3 3v2l-4 2-4-1-1-5z" fill="#FCFCFC"/>
</svg>
